<svg id="_0329_online_store" xmlns="http://www.w3.org/2000/svg" viewBox="0 0 500 500" data-imageid="online-store-90" imageName="Online Store" class="illustrations_image"><defs><style>.cls-1_online-store-90{fill:#fff;}.cls-2_online-store-90{fill:#a5a5a5;}.cls-3_online-store-90{opacity:.58;}.cls-3_online-store-90,.cls-4_online-store-90,.cls-5_online-store-90,.cls-6_online-store-90,.cls-7_online-store-90,.cls-8_online-store-90,.cls-9_online-store-90,.cls-10_online-store-90,.cls-11_online-store-90{fill:none;}.cls-4_online-store-90{opacity:.56;}.cls-12_online-store-90{fill:#e6e6e6;}.cls-5_online-store-90{opacity:.03;}.cls-6_online-store-90{opacity:.09;}.cls-7_online-store-90{opacity:.73;}.cls-8_online-store-90{opacity:.5;}.cls-9_online-store-90{opacity:.28;}.cls-10_online-store-90{opacity:.75;}.cls-11_online-store-90{opacity:.3;}.cls-13_online-store-90{fill:#24285b;}.cls-14_online-store-90{fill:#000001;}.cls-15_online-store-90{fill:#ffd200;}.cls-16_online-store-90{fill:#68e1fd;}</style></defs><g id="sd_online-store-90" class="cls-5_online-store-90"><ellipse class="cls-14_online-store-90" cx="250" cy="457.21" rx="224.1" ry="13.84"/></g><g id="plant_online-store-90"><g class="cls-3_online-store-90"><path class="cls-16_online-store-90 targetColor" d="m395.57,441.48s-14.19-3.87-17.27-17.08c0,0,21.98-4.44,22.61,18.25l-5.33-1.17Z" style="fill: rgb(99, 102, 241);"/></g><g class="cls-7_online-store-90"><path class="cls-16_online-store-90 targetColor" d="m397.31,440.07s-9.91-15.67-1.19-30.32c0,0,16.71,10.61,9.29,30.36l-8.1-.03Z" style="fill: rgb(99, 102, 241);"/></g><path class="cls-16_online-store-90 targetColor" d="m399.86,440.08s5.24-16.55,21.07-19.68c0,0,2.97,10.75-10.25,19.73l-10.82-.05Z" style="fill: rgb(99, 102, 241);"/><polygon class="cls-13_online-store-90" points="389.58 439.71 392.45 459.38 410.56 459.46 413.23 439.81 389.58 439.71"/></g><g id="promo_online-store-90"><polygon class="cls-15_online-store-90" points="84.34 458 97.82 397.71 142.76 397.71 129.65 458 84.34 458"/><polygon class="cls-15_online-store-90" points="142.76 397.71 156.24 458 129.65 458 142.76 397.71"/><g class="cls-6_online-store-90"><polygon class="cls-14_online-store-90" points="142.76 397.71 156.24 458 129.65 458 142.76 397.71"/></g><g class="cls-8_online-store-90"><polygon class="cls-1_online-store-90" points="103.44 408.2 97.82 433.28 126.47 433.28 131.34 408.2 103.44 408.2"/></g></g><g id="marketplace_online-store-90"><polygon class="cls-2_online-store-90" points="214.52 333.64 193.03 445.68 297.9 445.68 276.41 333.64 214.52 333.64"/><rect class="cls-12_online-store-90" x="178.7" y="434.6" width="132.88" height="22.6"/><rect class="cls-12_online-store-90" x="46.42" y="96.21" width="409.4" height="266.42"/><g class="cls-4_online-store-90"><rect class="cls-1_online-store-90" x="46.42" y="96.21" width="409.4" height="235.81"/></g><circle class="cls-13_online-store-90" cx="77.85" cy="95.24" r="8.61"/><circle class="cls-16_online-store-90 targetColor" cx="103.47" cy="95.24" r="8.61" style="fill: rgb(99, 102, 241);"/><circle class="cls-15_online-store-90" cx="127.61" cy="95.24" r="8.61"/><g class="cls-5_online-store-90"><polygon class="cls-14_online-store-90" points="46.42 146.07 46.42 171.61 455.81 171.61 455.81 125.1 283.19 97.87 92.1 120.35 62.78 126.23 46.69 143.59 46.42 146.07"/></g><polygon class="cls-16_online-store-90 targetColor" points="455.24 65.67 250.86 65.67 249.14 65.67 44.76 65.67 9.51 127.54 249.14 127.54 250.86 127.54 490.49 127.54 455.24 65.67" style="fill: rgb(99, 102, 241);"/><path class="cls-16_online-store-90 targetColor" d="m62.78,127.54h53.27v8.58c0,9.9-8.04,17.93-17.93,17.93h-17.4c-9.9,0-17.93-8.04-17.93-17.93v-8.58h0Z" style="fill: rgb(99, 102, 241);"/><path class="cls-16_online-store-90 targetColor" d="m170.1,127.54h53.27v8.58c0,9.9-8.04,17.93-17.93,17.93h-17.4c-9.9,0-17.93-8.04-17.93-17.93v-8.58h0Z" style="fill: rgb(99, 102, 241);"/><path class="cls-16_online-store-90 targetColor" d="m276.63,127.54h53.27v8.58c0,9.9-8.04,17.93-17.93,17.93h-17.4c-9.9,0-17.93-8.04-17.93-17.93v-8.58h0Z" style="fill: rgb(99, 102, 241);"/><path class="cls-16_online-store-90 targetColor" d="m383.95,127.54h53.27v8.58c0,9.9-8.04,17.93-17.93,17.93h-17.4c-9.9,0-17.93-8.04-17.93-17.93v-8.58h0Z" style="fill: rgb(99, 102, 241);"/><path class="cls-16_online-store-90 targetColor" d="m223.37,127.54v.22c0,14.53,11.78,26.3,26.3,26.3h.67c14.53,0,26.3-11.78,26.3-26.3v-62.08h-53.27v61.87Z" style="fill: rgb(99, 102, 241);"/><path class="cls-16_online-store-90 targetColor" d="m116.83,127.54v.22c0,14.53,11.78,26.3,26.3,26.3h.67c14.53,0,26.3-11.78,26.3-26.3v-.22l6.32-61.87h-46.9l-12.69,61.87Z" style="fill: rgb(99, 102, 241);"/><path class="cls-16_online-store-90 targetColor" d="m9.51,127.54v.22c0,14.53,11.78,26.3,26.3,26.3h.67c14.53,0,26.3-11.78,26.3-26.3v-.22l23.68-61.87h-41.7L9.51,127.54Z" style="fill: rgb(99, 102, 241);"/><path class="cls-16_online-store-90 targetColor" d="m370.48,65.67h-46.9l6.32,61.87h.77v.22c0,14.53,11.78,26.3,26.3,26.3h.67c14.53,0,26.3-11.78,26.3-26.3v-.22h-.77l-12.69-61.87Z" style="fill: rgb(99, 102, 241);"/><path class="cls-16_online-store-90 targetColor" d="m455.24,65.67h-41.7l23.68,61.87v.22c0,14.53,11.78,26.3,26.3,26.3h.67c14.53,0,26.3-11.78,26.3-26.3v-.22l-35.25-61.87Z" style="fill: rgb(99, 102, 241);"/><g class="cls-10_online-store-90"><path class="cls-1_online-store-90" d="m223.37,127.54v.22c0,14.53,11.78,26.3,26.3,26.3h.67c14.53,0,26.3-11.78,26.3-26.3v-62.08h-53.27v61.87Z"/><path class="cls-1_online-store-90" d="m116.83,127.54v.22c0,14.53,11.78,26.3,26.3,26.3h.67c14.53,0,26.3-11.78,26.3-26.3v-.22l6.32-61.87h-46.9l-12.69,61.87Z"/><path class="cls-1_online-store-90" d="m9.51,127.54v.22c0,14.53,11.78,26.3,26.3,26.3h.67c14.53,0,26.3-11.78,26.3-26.3v-.22l23.68-61.87h-41.7L9.51,127.54Z"/><path class="cls-1_online-store-90" d="m370.48,65.67h-46.9l6.32,61.87h.77v.22c0,14.53,11.78,26.3,26.3,26.3h.67c14.53,0,26.3-11.78,26.3-26.3v-.22h-.77l-12.69-61.87Z"/><path class="cls-1_online-store-90" d="m455.24,65.67h-41.7l23.68,61.87v.22c0,14.53,11.78,26.3,26.3,26.3h.67c14.53,0,26.3-11.78,26.3-26.3v-.22l-35.25-61.87Z"/></g><rect class="cls-16_online-store-90 targetColor" x="44.76" y="42.79" width="411.05" height="22.88" style="fill: rgb(99, 102, 241);"/><rect class="cls-13_online-store-90" x="153.47" y="208.8" width="197.08" height="85.62"/><rect class="cls-1_online-store-90" x="170.1" y="224.11" width="53.27" height="53.27"/><path class="cls-16_online-store-90 targetColor" d="m204.5,235.17c-2.11-.16-4.13.03-5.62.26-1.63.25-3.27.25-4.9,0-1.49-.23-3.5-.42-5.62-.26-2.28.17-4.37,1.33-5.81,3.1l-6.01,7.42,5.81,4.94,3.71-4.57v15.57h20.76v-15.57l3.71,4.57,5.81-4.94-6.01-7.42c-1.44-1.78-3.53-2.93-5.81-3.1Z" style="fill: rgb(99, 102, 241);"/><g class="cls-6_online-store-90"><path class="cls-14_online-store-90" d="m192.25,235.22s-1.13,6.34,3.81,6.28c4.94-.06,4-6.22,4-6.22,0,0-3.47.52-7.82-.06Z"/></g><circle class="cls-15_online-store-90" cx="349.95" cy="215" r="20.05"/><rect class="cls-1_online-store-90" x="239.95" y="233.39" width="71.63" height="12.31"/><g class="cls-9_online-store-90"><rect class="cls-1_online-store-90" x="239.95" y="255.48" width="71.63" height="12.31"/></g><g class="cls-11_online-store-90"><rect class="cls-2_online-store-90" x="65.65" y="200.25" width="70.57" height="116.08"/></g><rect class="cls-2_online-store-90" x="427.88" y="211.42" width="19.62" height="80.16"/></g></svg>