<svg id="_0558_transaction" xmlns="http://www.w3.org/2000/svg" xmlns:xlink="http://www.w3.org/1999/xlink" viewBox="0 0 500 500" data-imageid="transaction-3" imageName="Transaction" class="illustrations_image" ><defs><style>.cls-1_transaction-3{fill:url(#linear-gradient-10-transaction-3);}.cls-1_transaction-3,.cls-2_transaction-3,.cls-3_transaction-3{opacity:.58;}.cls-1_transaction-3,.cls-2_transaction-3,.cls-3_transaction-3,.cls-4_transaction-3,.cls-5_transaction-3,.cls-6_transaction-3,.cls-7_transaction-3,.cls-8_transaction-3,.cls-9_transaction-3,.cls-10_transaction-3,.cls-11_transaction-3,.cls-12_transaction-3,.cls-13_transaction-3,.cls-14_transaction-3,.cls-15_transaction-3,.cls-16_transaction-3,.cls-17_transaction-3,.cls-18_transaction-3,.cls-19_transaction-3,.cls-20_transaction-3,.cls-21_transaction-3,.cls-22_transaction-3,.cls-23_transaction-3{stroke-width:0px;}.cls-1_transaction-3,.cls-2_transaction-3,.cls-3_transaction-3,.cls-5_transaction-3,.cls-11_transaction-3{isolation:isolate;}.cls-2_transaction-3{fill:url(#linear-gradient-11-transaction-3);}.cls-3_transaction-3{fill:url(#linear-gradient-12-transaction-3);}.cls-4_transaction-3{fill:url(#linear-gradient);}.cls-5_transaction-3{opacity:.18;}.cls-5_transaction-3,.cls-11_transaction-3,.cls-23_transaction-3{fill:#68e1fd;}.cls-6_transaction-3{fill:url(#linear-gradient-13-transaction-3);}.cls-7_transaction-3{fill:url(#linear-gradient-17-transaction-3);}.cls-8_transaction-3{fill:url(#linear-gradient-16-transaction-3);}.cls-9_transaction-3{fill:url(#linear-gradient-15-transaction-3);}.cls-10_transaction-3{fill:url(#linear-gradient-14-transaction-3);}.cls-11_transaction-3{opacity:.32;}.cls-12_transaction-3{fill:url(#linear-gradient-4-transaction-3);}.cls-13_transaction-3{fill:url(#linear-gradient-2-transaction-3);}.cls-14_transaction-3{fill:url(#linear-gradient-3-transaction-3);}.cls-15_transaction-3{fill:url(#linear-gradient-8-transaction-3);}.cls-16_transaction-3{fill:url(#linear-gradient-9-transaction-3);}.cls-17_transaction-3{fill:url(#linear-gradient-7-transaction-3);}.cls-18_transaction-3{fill:url(#linear-gradient-5-transaction-3);}.cls-19_transaction-3{fill:url(#linear-gradient-6-transaction-3);}.cls-20_transaction-3{fill:#473f47;}.cls-21_transaction-3{fill:#fff;}.cls-22_transaction-3{fill:#fcbdba;}</style><linearGradient id="linear-gradient-transaction-3" x1="-949.7" y1="3237.39" x2="-1054.81" y2="2769.81" gradientTransform="translate(1268.68 3319.36) scale(1 -1)" gradientUnits="userSpaceOnUse"><stop offset="0" stop-color="#231f20"/><stop offset=".13" stop-color="#231f20" stop-opacity=".69"/><stop offset=".25" stop-color="#231f20" stop-opacity=".32"/><stop offset="1" stop-color="#231f20" stop-opacity="0"/></linearGradient><linearGradient id="linear-gradient-2-transaction-3" x1="-1131.9" y1="3199.79" x2="-887.85" y2="2884.85" gradientTransform="translate(1268.68 3319.36) scale(1 -1)" gradientUnits="userSpaceOnUse"><stop offset="0" stop-color="#fff" stop-opacity="0"/><stop offset=".54" stop-color="#fff"/></linearGradient><linearGradient id="linear-gradient-3-transaction-3" x1="-1031.44" y1="3030.64" x2="-1097.89" y2="3277.11" xlink:href="#linear-gradient-2-transaction-3"/><linearGradient id="linear-gradient-4-transaction-3" x1="-741.16" y1="3175.41" x2="-903.07" y2="2664.33" gradientTransform="translate(1100.79 3319.36) scale(1 -1)" xlink:href="#linear-gradient-transaction-3"/><linearGradient id="linear-gradient-5-transaction-3" x1="-756.07" y1="3110.49" x2="-525.71" y2="2831.79" gradientTransform="translate(1100.79 3319.36) scale(1 -1)" xlink:href="#linear-gradient-transaction-3"/><linearGradient id="linear-gradient-6-transaction-3" x1="-820.37" y1="3159.72" x2="-706.4" y2="3001.85" gradientTransform="translate(1100.79 3319.36) scale(1 -1)" xlink:href="#linear-gradient-transaction-3"/><linearGradient id="linear-gradient-7-transaction-3" x1="-725.34" y1="3145.58" x2="-790.59" y2="3021.14" gradientTransform="translate(1100.79 3319.36) scale(1 -1)" xlink:href="#linear-gradient-transaction-3"/><linearGradient id="linear-gradient-8-transaction-3" x1="-834.73" y1="3151.23" x2="-489.19" y2="2831.05" gradientTransform="translate(1100.79 3319.36) scale(1 -1)" xlink:href="#linear-gradient-transaction-3"/><linearGradient id="linear-gradient-9-transaction-3" x1="-1398.32" y1="2603.86" x2="-1481.56" y2="2835.84" gradientTransform="translate(1286.28 3192.48) rotate(5.61) scale(1 -1)" xlink:href="#linear-gradient-transaction-3"/><linearGradient id="linear-gradient-10-transaction-3" x1="5313.57" y1="-1527.14" x2="5457.05" y2="-1568.88" gradientTransform="translate(418.9 5871.3) rotate(-75.28) scale(1.02 1.11) skewX(6.41)" gradientUnits="userSpaceOnUse"><stop offset="0" stop-color="#000"/><stop offset=".13" stop-color="#000" stop-opacity=".69"/><stop offset="1" stop-color="#000" stop-opacity="0"/></linearGradient><linearGradient id="linear-gradient-11-transaction-3" x1="5287.03" y1="-1517.72" x2="5415.89" y2="-1557.9" xlink:href="#linear-gradient-10-transaction-3"/><linearGradient id="linear-gradient-12-transaction-3" x1="-1129.05" y1="2936.57" x2="-1141.54" y2="3143.97" gradientTransform="translate(1268.68 3319.36) scale(1 -1)" xlink:href="#linear-gradient-10-transaction-3"/><linearGradient id="linear-gradient-13-transaction-3" x1="67.53" y1="277.14" x2="90" y2="277.14" gradientUnits="userSpaceOnUse"><stop offset="0" stop-color="#fff" stop-opacity="0"/><stop offset="1" stop-color="#fff"/></linearGradient><linearGradient id="linear-gradient-14-transaction-3" x1="67.33" y1="270.89" x2="89.69" y2="270.89" xlink:href="#linear-gradient-13-transaction-3"/><linearGradient id="linear-gradient-15-transaction-3" x1="67.45" y1="273.88" x2="89.88" y2="273.88" xlink:href="#linear-gradient-13-transaction-3"/><linearGradient id="linear-gradient-16-transaction-3" x1="67.82" y1="280.02" x2="90.25" y2="280.02" xlink:href="#linear-gradient-13-transaction-3"/><linearGradient id="linear-gradient-17-transaction-3" x1="67.08" y1="267.74" x2="89.5" y2="267.74" xlink:href="#linear-gradient-13-transaction-3"/></defs><g id="background_transaction-3"><path class="cls-5_transaction-3 targetColor" d="M5.16,351.72c.49,4.05,1.36,8.05,2.59,11.95,6.65,21.15,23.37,39.52,42.91,50.93,22.68,13.24,41.77,18.87,61.35,18.87,9.97-.1,19.9-1.38,29.57-3.82,1.29-.3,2.59-.63,3.88-.97,3.26-.86,6.59-1.82,9.99-2.87l4.13-1.29,2.1-.7c2.81-.95,5.66-1.94,8.58-3l4.43-1.63c14.32-5.35,28.1-12.8,42.18-18.9,12.95-5.62,26.21-10.08,40.3-10.65,35.48-1.44,67.11,22.14,102.11,28.18,42.03,7.25,86.73-13.27,111.24-48.21,1.22-1.73,2.38-3.49,3.48-5.28.34-.53.66-1.07.98-1.61.87-1.44,1.7-2.87,2.49-4.34.36-.66.71-1.29,1.06-2.01s.75-1.46,1.11-2.2l.09-.18c.38-.74.72-1.48,1.07-2.23h0c3.24-6.97,5.84-14.23,7.77-21.67,7.08-27.35,5.68-56.2-4.01-82.73-.86-2.37-1.81-4.72-2.83-7.03-5-11.47-11.82-22.2-21.23-30.37-19-16.52-45.55-20.48-68.39-31.07-11.01-5.24-21.36-11.75-30.84-19.42-33.27-26.37-59.55-63.43-97.02-84.05-16.05-8.71-33.75-13.96-51.96-15.4-30.56-2.52-61.15,4.54-87.51,20.19-17.07,10.14-33.07,21.98-46.91,53.64-7.65,17.5-14.63,41.05-20.79,73.79-.72,3.79-1.64,7.54-2.76,11.24-8.19,27.31-26.24,53.27-38.19,80.05-6.07,13.62-10.55,27.46-11.35,41.79-.2,3.67-.07,7.35.39,11Z" style="fill: rgb(99, 102, 241);"/></g><g id="edc_transaction-3"><path class="cls-4_transaction-3" d="M186.71,245.02c-4.75-.77-9.51-1.54-14.3-1.89-21.12-1.42-41.97,5.42-58.15,19.08-.8.53-1.36,1.35-1.56,2.29-.11,1.54,1.6,2.53,3.05,3.09,23.99,9.31,49.28,14.84,74.97,16.39,1.71-.02,3.4.33,4.96,1.03,5.86,3.23,2.05,12.5,4.59,18.71,2.37,5.72,9.56,7.47,15.65,8.94,24.32,5.94,45.67,20.65,69.65,27.94,22.73,6.92,46.93,6.91,70.33,11.06,9.45,1.67,18.97,4.05,28.54,3.26,15.73-1.29,29.45-10.83,41.62-20.88.97-.65,1.7-1.58,2.1-2.67.47-1.97-1.24-3.73-2.86-5.01-17.16-13.79-37.19-23.64-56.93-33.4-8.47-4.18-17.04-8.4-26.26-10.47-8.95-2.02-18.31-1.96-27.18-4.29-9.15-2.4-17.44-7.22-26.06-11.1-32.01-14.35-67.93-16.52-102.16-22.07Z"/><path class="cls-23_transaction-3 targetColor" d="M141.7,220.86l69.03-26.26c6.44-2.52,11.58-7.56,14.2-13.96,1.62-3.8,4.16-7.22,8.05-6.89,8.48.7-6.02-32.73-6.02-32.73l-44.34,14.5-40.92,65.34Z" style="fill: rgb(99, 102, 241);"/><path class="cls-13_transaction-3" d="M141.7,220.86l69.03-26.26c6.44-2.52,11.58-7.56,14.2-13.96,1.62-3.8,4.16-7.22,8.05-6.89,8.48.7-6.02-32.73-6.02-32.73l-44.34,14.5-40.92,65.34Z"/><path class="cls-23_transaction-3 targetColor" d="M237.52,232.03c.46-8.34,5.29-15.82,6.79-24.03,2.86-15.58-6.69-30.9-18.25-41.72-6.97-6.54-15.58-12.39-25.13-12.16-14.53.34-24.86,14.19-30.77,27.48-5.91,13.29-10.46,28.32-22.24,36.83-1.74,1.48-3.94,2.32-6.22,2.37-3.56-.2-6.12-3.45-7.8-6.59-4.06-7.75-5.7-16.54-4.71-25.23,1.19-10.01,5.72-20.88.79-29.69-6.01-10.67-21.58-10.47-33.11-6.32l91.03-32.13s10.17-2.72,16.12,5.36c6.71,9.13,1.43,20.53,1.43,20.53l43.7-17.16c21.81-8.62,46.48,2.07,55.11,23.89.91,2.3,1.61,4.67,2.11,7.1,0,.39.16.77.23,1.17l7.47,39.35v8.58l-76.54,22.39Z" style="fill: rgb(99, 102, 241);"/><path class="cls-14_transaction-3" d="M237.52,232.03c.46-8.34,5.29-15.82,6.79-24.03,2.86-15.58-6.69-30.9-18.25-41.72-6.97-6.54-15.58-12.39-25.13-12.16-14.53.34-24.86,14.19-30.77,27.48-5.91,13.29-10.46,28.32-22.24,36.83-1.74,1.48-3.94,2.32-6.22,2.37-3.56-.2-6.12-3.45-7.8-6.59-4.06-7.75-5.7-16.54-4.71-25.23,1.19-10.01,5.72-20.88.79-29.69-6.01-10.67-21.58-10.47-33.11-6.32l91.03-32.13s10.17-2.72,16.12,5.36c6.71,9.13,1.43,20.53,1.43,20.53l43.7-17.16c21.81-8.62,46.48,2.07,55.11,23.89.91,2.3,1.61,4.67,2.11,7.1,0,.39.16.77.23,1.17l7.47,39.35v8.58l-76.54,22.39Z"/><path class="cls-23_transaction-3 targetColor" d="M223.75,260.41c-1.15,4.19-1.53,8.55-1.12,12.87,1.02,7.15,5.61,13.19,10.16,18.78,4.55,5.59,9.56,11.44,16.03,14.96,8.73,4.59,19.15,4.59,27.88,0,2.1-1.13,4.19-2.56,6.58-2.6,1.98.14,3.9.77,5.58,1.85,26.82,14.3,100.43,52.8,106.76,38.42,4.96-11.24-1.93-20.34-5.99-27.18-.69-1.16-1.43-2.33-2.19-3.5-22.39-33.9-80.87-72.79-133.94-91.39-4.29-1.53-6.64-3.16-10.74-1.2-3.75,1.79-6.97,6.99-9.01,10.41-4.81,7.97-7.24,17.16-9.41,26.18-.26.76-.39,1.59-.59,2.4Z" style="fill: rgb(99, 102, 241);"/><path class="cls-12_transaction-3" d="M223.75,260.41c-1.15,4.19-1.53,8.55-1.12,12.87,1.02,7.15,5.61,13.19,10.16,18.78,4.55,5.59,9.56,11.44,16.03,14.96,8.73,4.59,19.15,4.59,27.88,0,2.1-1.13,4.19-2.56,6.58-2.6,1.98.14,3.9.77,5.58,1.85,26.82,14.3,100.43,52.8,106.76,38.42,4.96-11.24-1.93-20.34-5.99-27.18-.69-1.16-1.43-2.33-2.19-3.5-22.39-33.9-80.87-72.79-133.94-91.39-4.29-1.53-6.64-3.16-10.74-1.2-3.75,1.79-6.97,6.99-9.01,10.41-4.81,7.97-7.24,17.16-9.41,26.18-.26.76-.39,1.59-.59,2.4Z"/><path class="cls-23_transaction-3 targetColor" d="M245.92,220.04h0c.67.31,87.01,40.28,143.7,97.42l.79-.4,76.14-39.52s-57.95-55.08-132.33-89.47c-3.41-1.52-7.29-1.58-10.74-.16l-76.08,31.51-1.47.62Z" style="fill: rgb(99, 102, 241);"/><path class="cls-18_transaction-3" d="M395.24,230.04c10.54,4.82,40.64,27.46,60.95,45.57l-64.51,33.06c-13.77-14.3-45.27-37.79-60.22-47.73,27.18-9.6,49.38-20.43,63.78-30.9Z"/><path class="cls-21_transaction-3" d="M398.07,234.87c4.02,2.1,7.79,4.63,11.24,7.57l-11.87,5.85c-3.37-2.99-6.97-5.7-10.79-8.1l11.41-5.32Z"/><path class="cls-21_transaction-3" d="M383.34,242.03c4.02,2.09,7.79,4.63,11.24,7.57l-11.87,5.85c-3.37-2.99-6.97-5.7-10.79-8.1l11.41-5.32Z"/><path class="cls-21_transaction-3" d="M368.55,249.18c4.02,2.09,7.79,4.63,11.24,7.57l-11.87,5.85c-3.37-2.99-6.98-5.7-10.79-8.11l11.41-5.31Z"/><path class="cls-21_transaction-3" d="M353.87,256.33c4.02,2.09,7.79,4.62,11.24,7.55l-11.87,5.86c-3.37-2.99-6.97-5.71-10.79-8.11l11.41-5.31Z"/><path class="cls-21_transaction-3" d="M411.63,245.17c4.01,2.1,7.78,4.63,11.24,7.55l-11.89,5.86c-3.36-3-6.97-5.71-10.79-8.11l11.43-5.31Z"/><path class="cls-21_transaction-3" d="M396.9,252.32c4.01,2.1,7.78,4.63,11.24,7.55l-11.89,5.86c-3.36-3-6.97-5.71-10.79-8.11l11.43-5.31Z"/><path class="cls-21_transaction-3" d="M382.16,259.48c4.01,2.1,7.78,4.63,11.24,7.55l-11.89,5.85c-3.37-2.99-6.98-5.7-10.79-8.1l11.43-5.31Z"/><path class="cls-21_transaction-3" d="M367.43,266.63c4.01,2.1,7.78,4.63,11.24,7.55l-11.89,5.85c-3.37-2.99-6.98-5.7-10.79-8.1l11.43-5.31Z"/><path class="cls-21_transaction-3" d="M425.17,255.5c4.02,2.08,7.79,4.62,11.24,7.55l-11.87,5.85c-3.37-2.99-6.98-5.7-10.79-8.1l11.41-5.31Z"/><path class="cls-21_transaction-3" d="M410.44,262.65c4.02,2.08,7.79,4.62,11.24,7.55l-11.87,5.85c-3.37-2.99-6.97-5.7-10.79-8.1l11.41-5.31Z"/><path class="cls-21_transaction-3" d="M395.72,269.79c4.02,2.1,7.79,4.63,11.24,7.57l-11.87,5.85c-3.37-2.99-6.97-5.7-10.79-8.1l11.41-5.32Z"/><path class="cls-21_transaction-3" d="M380.98,276.94c4.02,2.09,7.79,4.63,11.24,7.57l-11.87,5.85c-3.37-2.99-6.97-5.7-10.79-8.1l11.41-5.32Z"/><path class="cls-21_transaction-3" d="M438.73,265.8c4.02,2.1,7.79,4.63,11.24,7.57l-11.87,5.85c-3.37-2.99-6.98-5.7-10.8-8.1l11.43-5.32Z"/><path class="cls-21_transaction-3" d="M424,272.95c4.01,2.1,7.78,4.63,11.24,7.55l-11.87,5.86c-3.37-3-6.98-5.71-10.8-8.11l11.43-5.31Z"/><path class="cls-21_transaction-3" d="M409.27,280.1c4.01,2.1,7.78,4.63,11.24,7.55l-11.87,5.86c-3.37-2.99-6.98-5.71-10.8-8.11l11.43-5.31Z"/><path class="cls-21_transaction-3" d="M394.54,287.26c4,2.1,7.76,4.63,11.2,7.55l-11.87,5.86c-3.37-2.99-6.98-5.71-10.8-8.11l11.47-5.31Z"/><path class="cls-19_transaction-3" d="M265.1,217.84l3.19,1.43c19.07,8.91,40.94,22.59,57.33,34.54l56.83-26.96,2.86-1.34c-15.92-12.49-37.98-24.8-56.61-33.13l-63.6,25.46Z"/><path class="cls-17_transaction-3" d="M328.68,192.41l-.7,3.02,54.47,31.47,2.86-1.34c-17.16-14.19-36.26-24.02-56.63-33.14Z"/><path class="cls-15_transaction-3" d="M268.29,219.3c19.07,8.91,40.94,22.59,57.33,34.54l56.83-26.96c-17.16-11.69-38.33-24.4-54.47-31.47l-59.69,23.89Z"/><path class="cls-23_transaction-3 targetColor" d="M391.3,347.83l79.34-36.05s14.79-12.5-4.09-34.24l-76.93,39.92s14.96,21.71,1.67,30.37Z" style="fill: rgb(99, 102, 241);"/><path class="cls-23_transaction-3 targetColor" d="M276.8,185.84c-.79,0-1.44-.63-1.44-1.42,0-.58.34-1.1.87-1.33l23.89-10.16c.74-.28,1.56.09,1.84.83.26.7-.05,1.48-.73,1.8l-23.87,10.16c-.18.07-.37.11-.56.11Z" style="fill: rgb(99, 102, 241);"/><path class="cls-23_transaction-3 targetColor" d="M257.99,193.84c-.79,0-1.44-.63-1.44-1.42,0-.58.34-1.1.87-1.33l10.31-4.39c.73-.31,1.57.03,1.87.76.31.73-.03,1.57-.76,1.87l-10.3,4.35c-.17.09-.36.14-.56.16Z" style="fill: rgb(99, 102, 241);"/><path class="cls-23_transaction-3 targetColor" d="M279.45,171.06c-.79,0-1.43-.64-1.43-1.43,0-.57.34-1.09.87-1.31l16.23-6.91c.73-.31,1.57.02,1.88.75.31.73-.02,1.57-.75,1.88h0l-16.25,6.91c-.18.07-.37.11-.56.11Z" style="fill: rgb(99, 102, 241);"/><path class="cls-23_transaction-3 targetColor" d="M253,182.31c-.79,0-1.43-.64-1.43-1.43,0-.57.34-1.09.87-1.31l16.42-6.98c.74-.28,1.56.09,1.84.83.26.7-.05,1.48-.73,1.8l-16.42,7.02c-.18.06-.37.09-.56.07Z" style="fill: rgb(99, 102, 241);"/><path class="cls-23_transaction-3 targetColor" d="M283.55,155.67c-.79,0-1.43-.64-1.43-1.43,0-.57.34-1.09.87-1.31l7.15-3.05c.74-.28,1.56.09,1.84.83.26.7-.05,1.48-.73,1.8l-7.15,3.05c-.18.07-.37.11-.56.11Z" style="fill: rgb(99, 102, 241);"/><path class="cls-23_transaction-3 targetColor" d="M265.56,163.34c-.79,0-1.43-.64-1.43-1.43,0-.57.34-1.09.87-1.31l13.17-5.59c.74-.28,1.56.09,1.84.83.26.7-.05,1.48-.73,1.8l-13.17,5.59c-.18.08-.37.12-.56.11Z" style="fill: rgb(99, 102, 241);"/><path class="cls-23_transaction-3 targetColor" d="M248.02,170.79c-.57,0-1.09-.34-1.32-.86-.32-.72.01-1.57.74-1.88,0,0,0,0,0,0l10.93-4.63c.74-.28,1.56.09,1.84.83.26.7-.05,1.48-.73,1.8l-10.91,4.63c-.18.08-.37.12-.56.11Z" style="fill: rgb(99, 102, 241);"/><path class="cls-23_transaction-3 targetColor" d="M270.03,148.14c-.79,0-1.43-.64-1.43-1.43,0-.57.34-1.09.87-1.31l13.52-5.72c.74-.28,1.56.09,1.84.83.26.7-.05,1.48-.73,1.8l-13.52,5.72c-.18.08-.37.12-.56.11Z" style="fill: rgb(99, 102, 241);"/><path class="cls-23_transaction-3 targetColor" d="M240.87,160.54c-.57,0-1.09-.34-1.32-.86-.32-.72.01-1.57.74-1.88,0,0,0,0,0,0l21.36-9.07c.74-.28,1.56.09,1.84.83.26.7-.05,1.48-.73,1.8l-21.34,9.07c-.18.08-.37.12-.56.11Z" style="fill: rgb(99, 102, 241);"/><path class="cls-23_transaction-3 targetColor" d="M249.01,143.99c-.57,0-1.09-.34-1.32-.86-.31-.72.02-1.57.74-1.88,0,0,.01,0,.02,0l21.03-8.93c.71-.34,1.57-.03,1.9.69.34.71.03,1.57-.69,1.9-.03.02-.07.03-.1.04l-21.01,8.93c-.18.08-.38.12-.57.11Z" style="fill: rgb(99, 102, 241);"/><path class="cls-23_transaction-3 targetColor" d="M227.35,153.21c-.79,0-1.44-.63-1.44-1.42,0-.58.34-1.1.87-1.33l12.67-5.39c.73-.31,1.57.02,1.88.75.31.73-.02,1.57-.75,1.88l-12.67,5.39c-.18.07-.37.11-.56.11Z" style="fill: rgb(99, 102, 241);"/></g><g id="character_transaction-3"><path class="cls-16_transaction-3" d="M175.44,357.83c2.93.23,6.75,1.33,6.79,4.29.04,2.96-3.45,4.11-6.22,4.61l-22.27,3.93c-2.6.35-5.14,1.01-7.58,1.96-2.29,1.02-4.29,2.52-6.52,3.7-4.5,2.28-9.45,3.55-14.49,3.7-4.68.24-9.38,1.12-14.13,1.34-10.54.28-21.08-.48-31.47-2.27-2.97-.24-5.85-1.12-8.44-2.59-2.11-1.35-3.67-3.42-4.38-5.82l11.63-4.36c2.4-.69,4.6-1.95,6.39-3.69.67-.76,1.19-1.66,1.86-2.42,2.53-2.86,6.72-3.26,10.5-3.5,13.05-.84,25.75-2.09,38.79-1.57,13.05.51,26.33,1.6,39.54,2.69Z"/><path class="cls-23_transaction-3 targetColor" d="M62.23,307.55l-3.15-52.58c.04-3.33,2.66-6.05,5.98-6.22l98.45-9.83c3.11-.54,6.07,1.55,6.61,4.67.02.09.03.19.04.28l3.16,52.6c-.04,3.32-2.66,6.04-5.98,6.21l-98.47,9.83c-3.11.54-6.07-1.55-6.61-4.67-.02-.09-.03-.19-.04-.28Z" style="fill: rgb(99, 102, 241);"/><path class="cls-1_transaction-3" d="M170.28,245.79l3.16,52.6c.04.37.04.74,0,1.12-.63,2.82-3.04,4.89-5.92,5.09l-98.5,9.83c-3.11.56-6.08-1.51-6.64-4.62-.02-.08-.03-.17-.04-.25h0l-1.43-24.09-1.7-28.49c.04-3.32,2.65-6.04,5.96-6.22l98.45-9.86c3.49-.39,6.47,1.82,6.65,4.91Z"/><path class="cls-22_transaction-3" d="M168.59,248.79c.16-.23.33-.47.51-.7s.34-.41.6-.39c.1.02.2.07.29.13.39.37.58.9.53,1.43,0,.56-.23,1.09-.31,1.64l1.32-.47c.29-.14.61-.2.93-.2.71.11,1.22.72,1.22,1.43-.02.69-.25,1.36-.67,1.9.51.51.66,1.29.36,1.95-.28.65-.7,1.23-1.23,1.7.56.48.62,1.32.14,1.88-.01.01-.02.03-.04.04-.08.07-.15.15-.2.24,0,.16,0,.31.09.46s-.27.64-.56.86c-.44.35-.92.64-1.43.89-1.05.39-2.16.55-3.28.47h-5.64c-.57.1-1.15-.1-1.54-.51-.15-.27-.21-.58-.19-.89.05-.97.29-1.92.72-2.79.24-.9.58-1.76,1.03-2.57.24-.35.54-.66.87-.92.46-.19.94-.33,1.43-.41,1.3-.48,2.42-1.37,3.19-2.53.73-.77,1.26-1.73,1.87-2.63Z"/><path class="cls-2_transaction-3" d="M171.92,275.41l1.43,24.09c-.63,2.82-3.04,4.89-5.92,5.09l-98.41,9.83c-3.11.56-6.08-1.51-6.64-4.62-.02-.08-.03-.17-.04-.25h0l-1.43-24.09c.63-2.82,3.04-4.89,5.92-5.09l98.47-9.83c3.12-.53,6.07,1.57,6.6,4.68.01.09.03.18.04.27v-.07Z"/><path class="cls-3_transaction-3" d="M166.86,262.12s-23.87,9.14-33.74,4.29l-4.06,24.95-25.56-4.01s-4.29-39.45-6.62-41.78l15.46-1.54,33.93,11.71,20.6,6.38Z"/><path class="cls-23_transaction-3 targetColor" d="M67.76,280.85l-.67-11.36c.01-1.84,1.47-3.35,3.3-3.43l15.46-1.54c1.72-.3,3.36.86,3.65,2.58,0,.06.02.11.02.17l.69,11.31c-.03,1.84-1.48,3.35-3.32,3.45l-15.45,1.53c-1.73.3-3.37-.86-3.67-2.59,0-.04-.01-.08-.02-.12Z" style="fill: rgb(99, 102, 241);"/><path class="cls-6_transaction-3" d="M89.9,274.55l.1,1.85-6.45.64c-.12.81-.6,1.53-1.3,1.95l-.21.11h-.23c-.53,0-5.15.64-6.42.63-1.15-.16-2.13-.9-2.6-1.96l-5.14.5-.11-1.85,6.68-.67.29.66c.29.73.82,1.43,1.07,1.43.77,0,3.73-.31,5.72-.57.18-.27.24-.6.16-.92l-.16-1,8.61-.8Z"/><path class="cls-10_transaction-3" d="M89.69,271.09l-.11-1.86-6.44.64c-.22-.77-.78-1.38-1.53-1.66l-.21-.07h-.24c-.53,0-5.21.4-6.41.64-1.12.4-1.98,1.33-2.29,2.49l-5.12.51.1,1.85,6.69-.66.17-.7c.13-.63.44-1.21.9-1.66.74-.17,3.72-.41,5.72-.57.21.24.31.56.27.87v1.03l8.5-.86Z"/><polygon class="cls-9_transaction-3" points="67.48 275.2 67.45 274.8 89.85 272.56 89.88 272.95 67.48 275.2"/><polygon class="cls-8_transaction-3" points="67.83 281.33 67.82 280.95 90.22 278.7 90.25 279.1 67.83 281.33"/><polygon class="cls-7_transaction-3" points="67.1 269.06 67.08 268.66 89.48 266.43 89.5 266.81 67.1 269.06"/><path class="cls-11_transaction-3 targetColor" d="M72.58,296.04l13.13-1.26c1.62-.26,3.15.84,3.41,2.46,0,.04.01.09.02.13v.6c-.04,1.72-1.4,3.12-3.12,3.2l-13.12,1.26c-1.62.26-3.15-.83-3.42-2.46,0-.04-.01-.08-.02-.12v-.6c.03-1.72,1.38-3.13,3.1-3.22Z" style="fill: rgb(99, 102, 241);"/><path class="cls-11_transaction-3 targetColor" d="M97.31,294.66l13.16-1.22c1.61-.27,3.14.82,3.41,2.43,0,.06.02.11.02.17v.6c-.04,1.73-1.41,3.13-3.13,3.2l-13.16,1.22c-1.62.26-3.15-.84-3.41-2.46,0-.05-.01-.1-.02-.14v-.6c.03-1.73,1.4-3.14,3.13-3.2Z" style="fill: rgb(99, 102, 241);"/><path class="cls-11_transaction-3 targetColor" d="M122.33,292.02l13.13-1.26c1.62-.26,3.15.83,3.42,2.46,0,.04.01.08.02.12v.6c-.03,1.72-1.38,3.13-3.1,3.22l-13.13,1.26c-1.62.26-3.15-.84-3.41-2.46,0-.04-.01-.09-.02-.13v-.6c.03-1.72,1.39-3.12,3.1-3.2Z" style="fill: rgb(99, 102, 241);"/><path class="cls-11_transaction-3 targetColor" d="M147.21,290.02l13.13-1.26c1.61-.27,3.14.82,3.41,2.43,0,.05.02.1.02.15v.6c-.03,1.72-1.4,3.13-3.12,3.2l-13.12,1.27c-1.62.26-3.15-.84-3.41-2.46,0-.04-.01-.09-.02-.13v-.6c.03-1.72,1.39-3.12,3.1-3.2Z" style="fill: rgb(99, 102, 241);"/><path class="cls-20_transaction-3" d="M127.09,283.62s18.12,27.54,21.86,36.37c3.73,8.84,6.05,35.76,6.05,35.76l-8.35.8s-2.59-27.11-6.57-31.33-25.98-25.7-25.98-25.7l12.99-15.91Z"/><path class="cls-20_transaction-3" d="M128.64,286.35s-9.35,37.79-14.19,46.19c-4.83,8.4-18.07,23.66-18.07,23.66l-7.15-3.82s18.32-24.04,17.31-31.11c-1.02-7.07-3.62-33.96-3.62-33.96,0,0,12.93-6.94,25.72-.96Z"/><path class="cls-21_transaction-3" d="M107.91,233s-8.17,3.76-7.15,12.79,5.92,29.34,3.82,35.36c-2.1,6.02-1.12,6.21-1.12,6.21,0,0,18.25,6.95,25.86-.94,0,0-3.86-40.62-5.36-45.77-1.98-6.38-8.75-9.94-15.12-7.97-.31.1-.62.21-.93.33Z"/><path class="cls-21_transaction-3" d="M109.64,232.64l-13.73,4.43c-4.62,1.12-8.28,4.66-9.54,9.24l-.09.31,15.36-1.43,8-12.56Z"/><path class="cls-22_transaction-3" d="M123.52,216.57c.41.43.96.87.96,1.43-.07.45-.26.88-.54,1.23-1.29,2.2-.11,5.32-1.67,7.34-.57.7-1.35,1.21-2.23,1.43-.88.13-1.74.4-2.53.82-.59.58-.93,1.37-.94,2.2-.09,1,.09,2,0,3,.05.68-.27,1.34-.83,1.73-.28.12-.57.17-.87.17-1.73.07-3.46-.06-5.16-.4-.24-.04-.47-.13-.67-.27-.21-.22-.34-.51-.37-.82-.73-3.3-1.43-6.62-2.22-9.93-.44-1.19-.97-2.34-1.6-3.45-.59-1.66-.79-3.43-.59-5.18.19-1.31.63-2.57,1.32-3.7.55-1.08,1.35-2,2.35-2.69.73-.43,1.52-.76,2.35-.97,2.86-.87,7.28-2.05,9.74.39,2.06,2.05,1.4,5.56,3.53,7.67Z"/><path class="cls-20_transaction-3" d="M111.69,224.26c-.19-.27-.46-.48-.77-.59-.21-.07-.46-.1-.67-.17-.45-.19-.85-.48-1.16-.86-.21-.21-.4-.45-.56-.72-.38-.81-.32-1.76.17-2.5.25-.48.64-.88,1.13-1.12.5-.23,1.09-.16,1.53.17.34.29.5.73.87.97.39-.44.55-1.03.46-1.6,0-.57-.27-1.12-.37-1.67-.15-.56-.18-1.15-.07-1.72.13-.39.57-.57.94-.73.89-.32,1.81-.55,2.75-.7,2.65-.76,5.03-2.25,6.88-4.29.49-.42.82-.99.93-1.63-.06-.74-.47-1.41-1.1-1.8-1.9-1.2-4.19-1.6-6.38-1.1-2.16.5-4.29,1.11-6.38,1.83-2.03.57-4.12.92-6.12,1.56-.43.13-.83.31-1.2.56-.47.38-.84.87-1.07,1.43-.74,1.47-.74,3.21,0,4.68.15.21.26.45.31.7.02.26-.02.51-.1.76-.5,2.17.62,4.38,1.67,6.35l2.86,5.18c.28.62.7,1.18,1.22,1.63.7.42,1.56.49,2.32.2.62-.21,1.62-.73,1.53-1.43,0-.21.09-.4.24-.54.42-.53.63-1.2.59-1.87-.05-.36-.2-.7-.44-.97Z"/><path class="cls-23_transaction-3 targetColor" d="M83.35,356.74c-.56.38-.7,1.13-.33,1.69.09.13.2.24.33.33,3.44,3.71,7.56,6.73,12.14,8.87,1.27.59,3,1.02,3.86-.09s0-2.77-.77-4.03c-1-1.68-1.62-3.55-1.82-5.49,0-.67-.14-1.34-.4-1.96-.89-1.66-5.31-3.38-7.15-3.36-2.37.01-4.36,2.39-5.86,4.05Z" style="fill: rgb(99, 102, 241);"/><path class="cls-23_transaction-3 targetColor" d="M144.45,362.72c-.09.41-.02.85.21,1.2.26.25.59.4.94.44,4.95,1.05,10.05,1.13,15.03.23,1.43-.24,3.05-.9,3.12-2.3s-1.64-2.23-2.98-2.86c-1.78-.82-3.36-2.01-4.63-3.49-.38-.57-.86-1.05-1.43-1.43-1.69-.83-6.29.3-7.78,1.43-1.99,1.44-2.25,4.53-2.49,6.78Z" style="fill: rgb(99, 102, 241);"/><path class="cls-21_transaction-3" d="M122.03,236.91l12.63,10.28c3.96,3.22,9.47,6.65,14.58,6.65l13.49.19-.97,8.73s-17.67,3.68-23.99,0l-18.6-10.61s-6.42-13.52,2.86-15.23Z"/></g></svg>